<mxfile host="Electron" agent="Mozilla/5.0 (Windows NT 10.0; Win64; x64) AppleWebKit/537.36 (KHTML, like Gecko) draw.io/24.0.4 Chrome/120.0.6099.109 Electron/28.1.0 Safari/537.36" modified="2025-01-26T15:28:41.065Z" version="24.0.4" etag="udaj-ztf54l4rFYo59LU" type="device">
  <diagram name="Page-1" id="WuN5itk5ekYe3zcsuSHR">
    <mxGraphModel dx="1034" dy="511" grid="1" gridSize="10" guides="1" tooltips="1" connect="1" arrows="1" fold="1" page="1" pageScale="1" pageWidth="850" pageHeight="1100" math="0" shadow="0">
      <root>
        <mxCell id="0" />
        <mxCell id="1" parent="0" />
        <mxCell id="lvx2tT4AbWgyD4nXd0lc-3" value="Start" style="ellipse;whiteSpace=wrap;html=1;" parent="1" vertex="1">
          <mxGeometry x="330" y="40" width="110" height="50" as="geometry" />
        </mxCell>
        <mxCell id="lvx2tT4AbWgyD4nXd0lc-49" value="" style="edgeStyle=orthogonalEdgeStyle;rounded=0;orthogonalLoop=1;jettySize=auto;html=1;" parent="1" source="lvx2tT4AbWgyD4nXd0lc-4" target="lvx2tT4AbWgyD4nXd0lc-6" edge="1">
          <mxGeometry relative="1" as="geometry" />
        </mxCell>
        <mxCell id="lvx2tT4AbWgyD4nXd0lc-50" value="" style="edgeStyle=orthogonalEdgeStyle;rounded=0;orthogonalLoop=1;jettySize=auto;html=1;" parent="1" source="lvx2tT4AbWgyD4nXd0lc-4" target="lvx2tT4AbWgyD4nXd0lc-6" edge="1">
          <mxGeometry relative="1" as="geometry" />
        </mxCell>
        <mxCell id="lvx2tT4AbWgyD4nXd0lc-4" value="Connect with locally created access" style="rounded=0;whiteSpace=wrap;html=1;" parent="1" vertex="1">
          <mxGeometry x="300" y="110" width="170" height="50" as="geometry" />
        </mxCell>
        <mxCell id="lvx2tT4AbWgyD4nXd0lc-36" value="" style="edgeStyle=orthogonalEdgeStyle;rounded=0;orthogonalLoop=1;jettySize=auto;html=1;" parent="1" source="lvx2tT4AbWgyD4nXd0lc-5" target="lvx2tT4AbWgyD4nXd0lc-6" edge="1">
          <mxGeometry relative="1" as="geometry" />
        </mxCell>
        <mxCell id="lvx2tT4AbWgyD4nXd0lc-5" value="Input Password" style="rounded=0;whiteSpace=wrap;html=1;" parent="1" vertex="1">
          <mxGeometry x="300" y="180" width="170" height="30" as="geometry" />
        </mxCell>
        <mxCell id="lvx2tT4AbWgyD4nXd0lc-6" value="Check authentication" style="rhombus;whiteSpace=wrap;html=1;" parent="1" vertex="1">
          <mxGeometry x="330" y="250" width="110" height="90" as="geometry" />
        </mxCell>
        <mxCell id="lvx2tT4AbWgyD4nXd0lc-7" value="Stop" style="ellipse;whiteSpace=wrap;html=1;" parent="1" vertex="1">
          <mxGeometry x="500" y="270" width="110" height="50" as="geometry" />
        </mxCell>
        <mxCell id="lvx2tT4AbWgyD4nXd0lc-33" value="" style="edgeStyle=orthogonalEdgeStyle;rounded=0;orthogonalLoop=1;jettySize=auto;html=1;" parent="1" source="lvx2tT4AbWgyD4nXd0lc-8" target="lvx2tT4AbWgyD4nXd0lc-10" edge="1">
          <mxGeometry relative="1" as="geometry" />
        </mxCell>
        <mxCell id="lvx2tT4AbWgyD4nXd0lc-8" value="Initialize medi - app" style="rounded=0;whiteSpace=wrap;html=1;" parent="1" vertex="1">
          <mxGeometry x="300" y="360" width="170" height="30" as="geometry" />
        </mxCell>
        <mxCell id="lvx2tT4AbWgyD4nXd0lc-9" value="Rescheduling medicine time&amp;nbsp;" style="rounded=0;whiteSpace=wrap;html=1;" parent="1" vertex="1">
          <mxGeometry x="300" y="420" width="170" height="50" as="geometry" />
        </mxCell>
        <mxCell id="lvx2tT4AbWgyD4nXd0lc-10" value="Scheduling data and transmission to ESP32" style="rounded=0;whiteSpace=wrap;html=1;" parent="1" vertex="1">
          <mxGeometry x="300" y="500" width="170" height="50" as="geometry" />
        </mxCell>
        <mxCell id="lvx2tT4AbWgyD4nXd0lc-11" value="Making alert" style="rounded=0;whiteSpace=wrap;html=1;" parent="1" vertex="1">
          <mxGeometry x="400" y="960" width="170" height="30" as="geometry" />
        </mxCell>
        <mxCell id="lvx2tT4AbWgyD4nXd0lc-12" value="Current time = set alarm time ?" style="rhombus;whiteSpace=wrap;html=1;" parent="1" vertex="1">
          <mxGeometry x="320" y="640" width="130" height="90" as="geometry" />
        </mxCell>
        <mxCell id="lvx2tT4AbWgyD4nXd0lc-13" value="Time checking continue" style="ellipse;whiteSpace=wrap;html=1;" parent="1" vertex="1">
          <mxGeometry x="530" y="660" width="110" height="50" as="geometry" />
        </mxCell>
        <mxCell id="lvx2tT4AbWgyD4nXd0lc-14" value="Display the current time and count down scheduling&amp;nbsp;" style="rounded=0;whiteSpace=wrap;html=1;" parent="1" vertex="1">
          <mxGeometry x="180" y="770" width="170" height="50" as="geometry" />
        </mxCell>
        <mxCell id="lvx2tT4AbWgyD4nXd0lc-15" value="Check for opening or closing of pill box" style="rounded=0;whiteSpace=wrap;html=1;" parent="1" vertex="1">
          <mxGeometry x="400" y="770" width="170" height="50" as="geometry" />
        </mxCell>
        <mxCell id="lvx2tT4AbWgyD4nXd0lc-16" value="Box = opened?" style="rhombus;whiteSpace=wrap;html=1;" parent="1" vertex="1">
          <mxGeometry x="430" y="850" width="110" height="90" as="geometry" />
        </mxCell>
        <mxCell id="lvx2tT4AbWgyD4nXd0lc-17" value="Data reception via ESP32" style="rounded=0;whiteSpace=wrap;html=1;" parent="1" vertex="1">
          <mxGeometry x="310" y="590" width="170" height="30" as="geometry" />
        </mxCell>
        <mxCell id="lvx2tT4AbWgyD4nXd0lc-18" value="Making alert" style="rounded=0;whiteSpace=wrap;html=1;" parent="1" vertex="1">
          <mxGeometry x="600" y="880" width="170" height="30" as="geometry" />
        </mxCell>
        <mxCell id="lvx2tT4AbWgyD4nXd0lc-19" value="Take medicine&amp;nbsp;" style="rounded=0;whiteSpace=wrap;html=1;" parent="1" vertex="1">
          <mxGeometry x="400" y="1020" width="170" height="30" as="geometry" />
        </mxCell>
        <mxCell id="lvx2tT4AbWgyD4nXd0lc-20" value="END" style="ellipse;whiteSpace=wrap;html=1;" parent="1" vertex="1">
          <mxGeometry x="430" y="1090" width="110" height="50" as="geometry" />
        </mxCell>
        <mxCell id="lvx2tT4AbWgyD4nXd0lc-21" value="" style="endArrow=classic;html=1;rounded=0;entryX=0.5;entryY=0;entryDx=0;entryDy=0;exitX=0.5;exitY=1;exitDx=0;exitDy=0;" parent="1" source="lvx2tT4AbWgyD4nXd0lc-11" target="lvx2tT4AbWgyD4nXd0lc-19" edge="1">
          <mxGeometry width="50" height="50" relative="1" as="geometry">
            <mxPoint x="500" y="990" as="sourcePoint" />
            <mxPoint x="500" y="1060" as="targetPoint" />
          </mxGeometry>
        </mxCell>
        <mxCell id="lvx2tT4AbWgyD4nXd0lc-22" value="" style="endArrow=classic;html=1;rounded=0;entryX=0.5;entryY=0;entryDx=0;entryDy=0;exitX=0.5;exitY=1;exitDx=0;exitDy=0;" parent="1" source="lvx2tT4AbWgyD4nXd0lc-19" edge="1">
          <mxGeometry width="50" height="50" relative="1" as="geometry">
            <mxPoint x="484.5" y="1060" as="sourcePoint" />
            <mxPoint x="484.5" y="1090" as="targetPoint" />
            <Array as="points">
              <mxPoint x="484.5" y="1080" />
            </Array>
          </mxGeometry>
        </mxCell>
        <mxCell id="lvx2tT4AbWgyD4nXd0lc-23" value="" style="endArrow=classic;html=1;rounded=0;exitX=0.5;exitY=1;exitDx=0;exitDy=0;" parent="1" edge="1">
          <mxGeometry width="50" height="50" relative="1" as="geometry">
            <mxPoint x="484.5" y="940" as="sourcePoint" />
            <mxPoint x="485" y="960" as="targetPoint" />
          </mxGeometry>
        </mxCell>
        <mxCell id="lvx2tT4AbWgyD4nXd0lc-24" value="" style="endArrow=classic;html=1;rounded=0;exitX=0.5;exitY=1;exitDx=0;exitDy=0;" parent="1" source="lvx2tT4AbWgyD4nXd0lc-15" edge="1">
          <mxGeometry width="50" height="50" relative="1" as="geometry">
            <mxPoint x="484.5" y="850" as="sourcePoint" />
            <mxPoint x="485" y="850" as="targetPoint" />
          </mxGeometry>
        </mxCell>
        <mxCell id="lvx2tT4AbWgyD4nXd0lc-25" value="" style="endArrow=classic;html=1;rounded=0;exitX=0.5;exitY=1;exitDx=0;exitDy=0;" parent="1" edge="1">
          <mxGeometry width="50" height="50" relative="1" as="geometry">
            <mxPoint x="384.5" y="620" as="sourcePoint" />
            <mxPoint x="385" y="640" as="targetPoint" />
          </mxGeometry>
        </mxCell>
        <mxCell id="lvx2tT4AbWgyD4nXd0lc-26" value="" style="endArrow=classic;html=1;rounded=0;exitX=0.5;exitY=1;exitDx=0;exitDy=0;" parent="1" source="lvx2tT4AbWgyD4nXd0lc-10" edge="1">
          <mxGeometry width="50" height="50" relative="1" as="geometry">
            <mxPoint x="407.5" y="570" as="sourcePoint" />
            <mxPoint x="385" y="590" as="targetPoint" />
          </mxGeometry>
        </mxCell>
        <mxCell id="lvx2tT4AbWgyD4nXd0lc-27" value="" style="endArrow=classic;html=1;rounded=0;exitX=0.5;exitY=1;exitDx=0;exitDy=0;entryX=0.5;entryY=0;entryDx=0;entryDy=0;" parent="1" target="lvx2tT4AbWgyD4nXd0lc-10" edge="1">
          <mxGeometry width="50" height="50" relative="1" as="geometry">
            <mxPoint x="384.5" y="470" as="sourcePoint" />
            <mxPoint x="384.5" y="510" as="targetPoint" />
          </mxGeometry>
        </mxCell>
        <mxCell id="lvx2tT4AbWgyD4nXd0lc-28" value="" style="endArrow=classic;html=1;rounded=0;exitX=0.5;exitY=1;exitDx=0;exitDy=0;entryX=0.5;entryY=0;entryDx=0;entryDy=0;" parent="1" edge="1">
          <mxGeometry width="50" height="50" relative="1" as="geometry">
            <mxPoint x="384.5" y="390" as="sourcePoint" />
            <mxPoint x="385" y="420" as="targetPoint" />
          </mxGeometry>
        </mxCell>
        <mxCell id="lvx2tT4AbWgyD4nXd0lc-29" value="" style="endArrow=classic;html=1;rounded=0;exitX=0.5;exitY=1;exitDx=0;exitDy=0;" parent="1" edge="1">
          <mxGeometry width="50" height="50" relative="1" as="geometry">
            <mxPoint x="384.5" y="340" as="sourcePoint" />
            <mxPoint x="385" y="360" as="targetPoint" />
          </mxGeometry>
        </mxCell>
        <mxCell id="lvx2tT4AbWgyD4nXd0lc-30" value="" style="endArrow=classic;html=1;rounded=0;" parent="1" edge="1">
          <mxGeometry width="50" height="50" relative="1" as="geometry">
            <mxPoint x="540" y="894.5" as="sourcePoint" />
            <mxPoint x="600" y="894.5" as="targetPoint" />
          </mxGeometry>
        </mxCell>
        <mxCell id="lvx2tT4AbWgyD4nXd0lc-31" value="" style="endArrow=classic;html=1;rounded=0;entryX=0;entryY=0.5;entryDx=0;entryDy=0;" parent="1" target="lvx2tT4AbWgyD4nXd0lc-13" edge="1">
          <mxGeometry width="50" height="50" relative="1" as="geometry">
            <mxPoint x="450" y="684.5" as="sourcePoint" />
            <mxPoint x="510" y="684.5" as="targetPoint" />
          </mxGeometry>
        </mxCell>
        <mxCell id="lvx2tT4AbWgyD4nXd0lc-32" value="" style="endArrow=classic;html=1;rounded=0;" parent="1" edge="1">
          <mxGeometry width="50" height="50" relative="1" as="geometry">
            <mxPoint x="440" y="294.5" as="sourcePoint" />
            <mxPoint x="500" y="294.5" as="targetPoint" />
          </mxGeometry>
        </mxCell>
        <mxCell id="lvx2tT4AbWgyD4nXd0lc-37" value="" style="endArrow=classic;html=1;rounded=0;" parent="1" edge="1">
          <mxGeometry width="50" height="50" relative="1" as="geometry">
            <mxPoint x="385" y="160" as="sourcePoint" />
            <mxPoint x="385" y="180" as="targetPoint" />
          </mxGeometry>
        </mxCell>
        <mxCell id="lvx2tT4AbWgyD4nXd0lc-39" value="" style="endArrow=none;html=1;rounded=0;" parent="1" edge="1">
          <mxGeometry width="50" height="50" relative="1" as="geometry">
            <mxPoint x="230" y="750" as="sourcePoint" />
            <mxPoint x="500" y="750" as="targetPoint" />
          </mxGeometry>
        </mxCell>
        <mxCell id="lvx2tT4AbWgyD4nXd0lc-40" value="" style="endArrow=classic;html=1;rounded=0;exitX=0.5;exitY=1;exitDx=0;exitDy=0;" parent="1" edge="1">
          <mxGeometry width="50" height="50" relative="1" as="geometry">
            <mxPoint x="230" y="750" as="sourcePoint" />
            <mxPoint x="230.5" y="770" as="targetPoint" />
          </mxGeometry>
        </mxCell>
        <mxCell id="lvx2tT4AbWgyD4nXd0lc-41" value="" style="endArrow=classic;html=1;rounded=0;exitX=0.5;exitY=1;exitDx=0;exitDy=0;" parent="1" edge="1">
          <mxGeometry width="50" height="50" relative="1" as="geometry">
            <mxPoint x="500" y="750" as="sourcePoint" />
            <mxPoint x="500.5" y="770" as="targetPoint" />
          </mxGeometry>
        </mxCell>
        <mxCell id="lvx2tT4AbWgyD4nXd0lc-42" value="" style="endArrow=classic;html=1;rounded=0;exitX=0.5;exitY=1;exitDx=0;exitDy=0;" parent="1" source="lvx2tT4AbWgyD4nXd0lc-12" edge="1">
          <mxGeometry width="50" height="50" relative="1" as="geometry">
            <mxPoint x="384.5" y="750" as="sourcePoint" />
            <mxPoint x="385" y="750" as="targetPoint" />
          </mxGeometry>
        </mxCell>
        <mxCell id="lvx2tT4AbWgyD4nXd0lc-44" value="" style="endArrow=classic;html=1;rounded=0;" parent="1" edge="1">
          <mxGeometry width="50" height="50" relative="1" as="geometry">
            <mxPoint x="690" y="1070" as="sourcePoint" />
            <mxPoint x="480" y="1070" as="targetPoint" />
          </mxGeometry>
        </mxCell>
        <mxCell id="lvx2tT4AbWgyD4nXd0lc-46" value="" style="endArrow=none;html=1;rounded=0;" parent="1" edge="1">
          <mxGeometry width="50" height="50" relative="1" as="geometry">
            <mxPoint x="684.5" y="910" as="sourcePoint" />
            <mxPoint x="685" y="1070" as="targetPoint" />
          </mxGeometry>
        </mxCell>
        <mxCell id="lvx2tT4AbWgyD4nXd0lc-51" value="" style="endArrow=classic;html=1;rounded=0;" parent="1" edge="1">
          <mxGeometry width="50" height="50" relative="1" as="geometry">
            <mxPoint x="384.5" y="90" as="sourcePoint" />
            <mxPoint x="384.5" y="110" as="targetPoint" />
          </mxGeometry>
        </mxCell>
        <mxCell id="lvx2tT4AbWgyD4nXd0lc-52" value="No" style="text;html=1;align=center;verticalAlign=middle;whiteSpace=wrap;rounded=0;" parent="1" vertex="1">
          <mxGeometry x="455" y="660" width="60" height="30" as="geometry" />
        </mxCell>
        <mxCell id="lvx2tT4AbWgyD4nXd0lc-53" value="Yes" style="text;html=1;align=center;verticalAlign=middle;whiteSpace=wrap;rounded=0;" parent="1" vertex="1">
          <mxGeometry x="480" y="930" width="60" height="30" as="geometry" />
        </mxCell>
        <mxCell id="lvx2tT4AbWgyD4nXd0lc-54" value="Yes" style="text;html=1;align=center;verticalAlign=middle;whiteSpace=wrap;rounded=0;" parent="1" vertex="1">
          <mxGeometry x="380" y="720" width="60" height="30" as="geometry" />
        </mxCell>
        <mxCell id="lvx2tT4AbWgyD4nXd0lc-55" value="Yes" style="text;html=1;align=center;verticalAlign=middle;whiteSpace=wrap;rounded=0;" parent="1" vertex="1">
          <mxGeometry x="380" y="330" width="60" height="30" as="geometry" />
        </mxCell>
        <mxCell id="lvx2tT4AbWgyD4nXd0lc-56" value="No" style="text;html=1;align=center;verticalAlign=middle;whiteSpace=wrap;rounded=0;" parent="1" vertex="1">
          <mxGeometry x="440" y="260" width="60" height="30" as="geometry" />
        </mxCell>
        <mxCell id="lvx2tT4AbWgyD4nXd0lc-57" value="No" style="text;html=1;align=center;verticalAlign=middle;whiteSpace=wrap;rounded=0;" parent="1" vertex="1">
          <mxGeometry x="540" y="870" width="60" height="30" as="geometry" />
        </mxCell>
      </root>
    </mxGraphModel>
  </diagram>
</mxfile>
